<svg xmlns="http://www.w3.org/2000/svg" width="512" height="512" viewBox="0 0 512 512"><g data-name="Filled outline"><path fill="#fdbf92" d="M416 24a57.66 57.66 0 0 0-54.7 75.9L384 168H136v320h256a96 96 0 0 0 96-96V168z"/><rect width="128" height="80" x="80" y="408" fill="#fdb683" rx="40"/><path fill="#ffb431" d="M256 128a56 56 0 1 1 56-56 56.063 56.063 0 0 1-56 56m0-96a40 40 0 1 0 40 40 40.045 40.045 0 0 0-40-40"/><path fill="#c7483c" d="M240 88h32v56h-32z"/><circle cx="272" cy="304" r="168" fill="#fdb683"/><path fill="#c7483c" d="m176 176-50.343-50.343a8 8 0 0 0-11.314 0l-20.686 20.686a8 8 0 0 0 0 11.314L144 208zm160 0 50.343-50.343a8 8 0 0 1 11.314 0l20.686 20.686a8 8 0 0 1 0 11.314L368 208z"/><circle cx="256" cy="288" r="168" fill="#d65246"/><circle cx="256" cy="288" r="136" fill="#2c86d1"/><circle cx="256" cy="288" r="112" fill="#348ed8"/><path fill="#d65246" d="M224 56h64v32h-64z"/><g fill="#ffb431"><path d="M248 368h16v32h-16zm0-192h16v32h-16zm41.065 185.273 13.856-8 16 27.712-13.856 8zM193.067 195l13.855-8 16 27.712-13.856 8zm128.207 139.934 7.999-13.856 27.712 16-8 13.856zM154.999 238.93l8-13.855 27.712 16-8 13.856zM336 280h32v16h-32zm-192 0h32v16h-32zm10.995 57.073 27.712-16 8 13.855-27.712 16zm134.072-122.348 16-27.712 13.856 8-16 27.712zM193.062 381l16-27.712 13.856 8-16 27.712z"/><circle cx="256" cy="288" r="24"/><path d="m265.774 273.104 82.307-48.012 8.064 13.824-82.307 48.012z"/></g><rect width="128" height="80" x="24" y="168" fill="#fdc8a2" rx="40"/><rect width="128" height="80" x="24" y="248" fill="#fdc8a2" rx="40"/><rect width="128" height="80" x="48" y="328" fill="#fdc8a2" rx="40"/><rect width="128" height="80" x="64" y="408" fill="#fdc8a2" rx="40"/><rect width="64" height="16" x="56" y="240" fill="#fdb683" rx="8"/><rect width="48" height="16" x="72" y="320" fill="#fdb683" rx="6.928"/><rect width="48" height="16" x="96" y="400" fill="#fdb683" rx="6.928"/><path d="m495.155 164.422-72-144A8 8 0 0 0 416 16a65.655 65.655 0 0 0-62.29 86.419l11.137 33.42-7.945 7.945c-1.062.438-10.406-6.787-11.535-7.448q-.133-.076-.267-.15a173.8 173.8 0 0 0-53.871-20.663 56 56 0 1 0-70.44.014A175.05 175.05 0 0 0 155.11 143.8L131.316 120a16.024 16.024 0 0 0-22.633 0L88 140.683A15.96 15.96 0 0 0 85.47 160H64a47.63 47.63 0 0 0-38.4 19.19l12.8 9.61A31.76 31.76 0 0 1 64 176h48a32 32 0 0 1 0 64H64a32.036 32.036 0 0 1-31.36-38.408l-15.68-3.184A48.02 48.02 0 0 0 37.507 248a47.974 47.974 0 0 0 15.874 86.8 47.95 47.95 0 0 0 17.851 78.17A47.967 47.967 0 0 0 104 496h48a48.066 48.066 0 0 0 47.519-41.272A175.2 175.2 0 0 0 256 464c97.047 0 176-78.953 176-176a174.23 174.23 0 0 0-31.787-100.9L424 163.317a16 16 0 0 0 0-22.634L403.316 120a16.024 16.024 0 0 0-22.633 0l-3.186 3.186-8.608-25.831a49.666 49.666 0 0 1 42.28-65.131L480 169.889V392a88.1 88.1 0 0 1-88 88H200v16h192a104.12 104.12 0 0 0 104-104V168a8 8 0 0 0-.845-3.578M272 80h-32V64h32zm-24 16h16v16.187a181 181 0 0 0-16 0zm8-64a40 40 0 0 1 24 72v-8a8 8 0 0 0 8-8V56a8 8 0 0 0-8-8h-48a8 8 0 0 0-8 8v32a8 8 0 0 0 8 8v8a40 40 0 0 1 24-72M107.315 160l-8-8L120 131.317l22.329 22.329q-5.811 4.92-11.2 10.343A47.7 47.7 0 0 0 112 160zM32 288a32.036 32.036 0 0 1 32-32h48a32 32 0 0 1 0 64H64a32.036 32.036 0 0 1-32-32m56 112a32 32 0 0 1 0-64h48a32 32 0 0 1 0 64zm64 80h-48a32 32 0 0 1 0-64h48a32 32 0 0 1 0 64m104-32a159 159 0 0 1-57.176-10.524 48.18 48.18 0 0 0-30.056-34.448 47.89 47.89 0 0 0 8.131-60.121l13.821-7.978-8-13.858-16.608 9.587a47.86 47.86 0 0 0-19.494-9.46 47.9 47.9 0 0 0 12.7-25.2H176V280h-16.679a48.08 48.08 0 0 0-20.828-32 47.925 47.925 0 0 0 6.3-75.01 159.94 159.94 0 0 1 126.463-44.265C351.305 136.466 416 206.84 416 288c0 88.225-71.776 160-160 160m136-316.683L412.683 152l-22.34 22.34a176.6 176.6 0 0 0-20.681-20.689z"/><path d="M256 144a144.06 144.06 0 0 0-93.179 34.208l10.358 12.192A127.97 127.97 0 1 1 203.3 404.683l-6.6 14.578A142.9 142.9 0 0 0 256 432c79.4 0 144-64.6 144-144s-64.6-144-144-144"/><path d="M248 368h16v32h-16zm0-192h16v32h-16zm41.065 185.273 13.856-8 16 27.712-13.856 8zM193.067 195l13.855-8 16 27.712-13.856 8zm128.207 139.934 7.999-13.856 27.712 16-8 13.856zM154.999 238.93l8-13.855 27.712 16-8 13.856zM336 280h32v16h-32zm-46.933-65.275 16-27.712 13.856 8-16 27.712zM193.062 381l16-27.712 13.856 8-16 27.712zM232 288a24 24 0 1 0 47.573-4.489l76.458-44.6-8.062-13.82L271.5 269.7A23.982 23.982 0 0 0 232 288m24-8a8 8 0 1 1-8 8 8.01 8.01 0 0 1 8-8"/></g></svg>